<?xml version="1.0" standalone="no"?>
<!DOCTYPE svg PUBLIC "-//W3C//DTD SVG 1.1//EN"
"http://www.w3.org/Graphics/SVG/1.1/DTD/svg11.dtd">

<svg width="604" height="440" view_box="0 0 604 440"
xmlns="http://www.w3.org/2000/svg"
xmlns:link="http://www.w3.org/1999/xlink">\n\n<desc>Généré par Mocodo 2.3.7 le Fri, 15 Jul 2022 01:30:54</desc>

<rect id="frame" x="0" y="0" width="604" height="440" fill="#ffffff" stroke="none" stroke-width="0"/>

<!-- Association lier -->
<line x1="294" y1="211" x2="294" y2="380" stroke="#d6604d" stroke-width="2"/>
<text x="299.0" y="321" fill="#4d4d4d" font-family="Verdana" font-size="12">0,N</text>
<line x1="417" y1="380" x2="294" y2="380" stroke="#d6604d" stroke-width="2"/>
<text x="337" y="397.0" fill="#4d4d4d" font-family="Verdana" font-size="12">1,1</text>
<g id="association-lier">
	<path d="M 297 355 a 14 14 90 0 1 14 14 V 380 h -34 V 369 a 14 14 90 0 1 14 -14" fill="#f4a582" stroke="#f4a582" stroke-width="0"/>
	<path d="M 311 380.0 v 11 a 14 14 90 0 1 -14 14 H 291 a 14 14 90 0 1 -14 -14 V 380.0 H 34" fill="#fddbc7" stroke="#fddbc7" stroke-width="0"/>
	<rect x="277" y="355" width="34" height="50" fill="none" rx="14" stroke="#d6604d" stroke-width="2"/>
	<line x1="277" y1="380" x2="311" y2="380" stroke="#d6604d" stroke-width="1"/>
	<text x="284" y="372.7" fill="#000000" font-family="Verdana" font-size="12">lier</text>
</g>

<!-- Association rédiger -->
<line x1="294" y1="211" x2="294" y2="51" stroke="#d6604d" stroke-width="2"/>
<text x="299.0" y="110" fill="#4d4d4d" font-family="Verdana" font-size="12">0,N</text>
<line x1="417" y1="51" x2="294" y2="51" stroke="#d6604d" stroke-width="2"/>
<text x="329" y="68.0" fill="#4d4d4d" font-family="Verdana" font-size="12">1,1</text>
<g id="association-rédiger">
	<path d="M 309 26 a 14 14 90 0 1 14 14 V 51 h -58 V 40 a 14 14 90 0 1 14 -14" fill="#f4a582" stroke="#f4a582" stroke-width="0"/>
	<path d="M 323 51.0 v 11 a 14 14 90 0 1 -14 14 H 279 a 14 14 90 0 1 -14 -14 V 51.0 H 58" fill="#fddbc7" stroke="#fddbc7" stroke-width="0"/>
	<rect x="265" y="26" width="58" height="50" fill="none" rx="14" stroke="#d6604d" stroke-width="2"/>
	<line x1="265" y1="51" x2="323" y2="51" stroke="#d6604d" stroke-width="1"/>
	<text x="272" y="43.7" fill="#000000" font-family="Verdana" font-size="12">rédiger</text>
</g>

<!-- Association poster -->
<line x1="553" y1="211" x2="417" y2="211" stroke="#d6604d" stroke-width="2"/>
<text x="488" y="228.0" fill="#4d4d4d" font-family="Verdana" font-size="12">1,1</text>
<line x1="294" y1="211" x2="417" y2="211" stroke="#d6604d" stroke-width="2"/>
<text x="362" y="228.0" fill="#4d4d4d" font-family="Verdana" font-size="12">0,N</text>
<g id="association-poster">
	<path d="M 430 186 a 14 14 90 0 1 14 14 V 211 h -54 V 200 a 14 14 90 0 1 14 -14" fill="#f4a582" stroke="#f4a582" stroke-width="0"/>
	<path d="M 444 211.0 v 11 a 14 14 90 0 1 -14 14 H 404 a 14 14 90 0 1 -14 -14 V 211.0 H 54" fill="#fddbc7" stroke="#fddbc7" stroke-width="0"/>
	<rect x="390" y="186" width="54" height="50" fill="none" rx="14" stroke="#d6604d" stroke-width="2"/>
	<line x1="390" y1="211" x2="444" y2="211" stroke="#d6604d" stroke-width="1"/>
	<text x="397" y="203.7" fill="#000000" font-family="Verdana" font-size="12">poster</text>
</g>

<!-- Association commenter -->
<line x1="553" y1="211" x2="553" y2="51" stroke="#d6604d" stroke-width="2"/>
<text x="558.0" y="144" fill="#4d4d4d" font-family="Verdana" font-size="12">0,N</text>
<line x1="417" y1="51" x2="553" y2="51" stroke="#d6604d" stroke-width="2"/>
<text x="484" y="68.0" fill="#4d4d4d" font-family="Verdana" font-size="12">1,1</text>
<g id="association-commenter">
	<path d="M 581 26 a 14 14 90 0 1 14 14 V 51 h -84 V 40 a 14 14 90 0 1 14 -14" fill="#f4a582" stroke="#f4a582" stroke-width="0"/>
	<path d="M 595 51.0 v 11 a 14 14 90 0 1 -14 14 H 525 a 14 14 90 0 1 -14 -14 V 51.0 H 84" fill="#fddbc7" stroke="#fddbc7" stroke-width="0"/>
	<rect x="511" y="26" width="84" height="50" fill="none" rx="14" stroke="#d6604d" stroke-width="2"/>
	<line x1="511" y1="51" x2="595" y2="51" stroke="#d6604d" stroke-width="1"/>
	<text x="518" y="43.7" fill="#000000" font-family="Verdana" font-size="12">commenter</text>
</g>

<!-- Association créer -->
<line x1="294" y1="211" x2="176" y2="211" stroke="#d6604d" stroke-width="2"/>
<text x="204" y="228.0" fill="#4d4d4d" font-family="Verdana" font-size="12">0,N</text>
<line x1="59" y1="211" x2="176" y2="211" stroke="#d6604d" stroke-width="2"/>
<text x="114" y="228.0" fill="#4d4d4d" font-family="Verdana" font-size="12">1,1</text>
<g id="association-créer">
	<path d="M 185 186 a 14 14 90 0 1 14 14 V 211 h -46 V 200 a 14 14 90 0 1 14 -14" fill="#f4a582" stroke="#f4a582" stroke-width="0"/>
	<path d="M 199 211.0 v 11 a 14 14 90 0 1 -14 14 H 167 a 14 14 90 0 1 -14 -14 V 211.0 H 46" fill="#fddbc7" stroke="#fddbc7" stroke-width="0"/>
	<rect x="153" y="186" width="46" height="50" fill="none" rx="14" stroke="#d6604d" stroke-width="2"/>
	<line x1="153" y1="211" x2="199" y2="211" stroke="#d6604d" stroke-width="1"/>
	<text x="160" y="203.7" fill="#000000" font-family="Verdana" font-size="12">créer</text>
</g>

<!-- Association posséder -->
<line x1="59" y1="211" x2="59" y2="380" stroke="#d6604d" stroke-width="2"/>
<text x="64.0" y="296" fill="#4d4d4d" font-family="Verdana" font-size="12">1,N</text>
<line x1="176" y1="380" x2="59" y2="380" stroke="#d6604d" stroke-width="2"/>
<text x="99" y="397.0" fill="#4d4d4d" font-family="Verdana" font-size="12">0,N</text>
<g id="association-posséder">
	<path d="M 80 355 a 14 14 90 0 1 14 14 V 380 h -70 V 369 a 14 14 90 0 1 14 -14" fill="#f4a582" stroke="#f4a582" stroke-width="0"/>
	<path d="M 94 380.0 v 11 a 14 14 90 0 1 -14 14 H 38 a 14 14 90 0 1 -14 -14 V 380.0 H 70" fill="#fddbc7" stroke="#fddbc7" stroke-width="0"/>
	<rect x="24" y="355" width="70" height="50" fill="none" rx="14" stroke="#d6604d" stroke-width="2"/>
	<line x1="24" y1="380" x2="94" y2="380" stroke="#d6604d" stroke-width="1"/>
	<text x="31" y="372.7" fill="#000000" font-family="Verdana" font-size="12">posséder</text>
</g>

<!-- Association définir -->
<line x1="59" y1="211" x2="59" y2="51" stroke="#d6604d" stroke-width="2"/>
<text x="64.0" y="135" fill="#4d4d4d" font-family="Verdana" font-size="12">1,1</text>
<line x1="176" y1="51" x2="59" y2="51" stroke="#d6604d" stroke-width="2"/>
<text x="101" y="68.0" fill="#4d4d4d" font-family="Verdana" font-size="12">0,N</text>
<g id="association-définir">
	<path d="M 72 26 a 14 14 90 0 1 14 14 V 51 h -54 V 40 a 14 14 90 0 1 14 -14" fill="#f4a582" stroke="#f4a582" stroke-width="0"/>
	<path d="M 86 51.0 v 11 a 14 14 90 0 1 -14 14 H 46 a 14 14 90 0 1 -14 -14 V 51.0 H 54" fill="#fddbc7" stroke="#fddbc7" stroke-width="0"/>
	<rect x="32" y="26" width="54" height="50" fill="none" rx="14" stroke="#d6604d" stroke-width="2"/>
	<line x1="32" y1="51" x2="86" y2="51" stroke="#d6604d" stroke-width="1"/>
	<text x="39" y="43.7" fill="#000000" font-family="Verdana" font-size="12">définir</text>
</g>

<!-- Entity DIFFICULTÉ -->
<g id="entity-DIFFICULTÉ">
	<g id="frame-DIFFICULTÉ">
		<rect x="128" y="17" width="96" height="25" fill="#bababa" stroke="#bababa" stroke-width="0"/>
		<rect x="128" y="42.0" width="96" height="43" fill="#e0e0e0" stroke="#e0e0e0" stroke-width="0"/>
		<rect x="128" y="17" width="96" height="68" fill="none" stroke="#878787" stroke-width="2"/>
		<line x1="128" y1="42" x2="224" y2="42" stroke="#878787" stroke-width="1"/>
	</g>
	<text x="139" y="34.7" fill="#000000" font-family="Verdana" font-size="12">DIFFICULTÉ</text>
	<text x="133" y="59.8" fill="#000000" font-family="Verdana" font-size="12">code difficulté</text>
	<line x1="133" y1="62" x2="218" y2="62" stroke="#000000" stroke-width="1"/>
	<text x="133" y="76.8" fill="#000000" font-family="Verdana" font-size="12">nom</text>
</g>

<!-- Entity UTILISATEUR -->
<g id="entity-UTILISATEUR">
	<g id="frame-UTILISATEUR">
		<rect x="231" y="118" width="126" height="25" fill="#bababa" stroke="#bababa" stroke-width="0"/>
		<rect x="231" y="143.0" width="126" height="161" fill="#e0e0e0" stroke="#e0e0e0" stroke-width="0"/>
		<rect x="231" y="118" width="126" height="186" fill="none" stroke="#878787" stroke-width="2"/>
		<line x1="231" y1="143" x2="357" y2="143" stroke="#878787" stroke-width="1"/>
	</g>
	<text x="252" y="135.7" fill="#000000" font-family="Verdana" font-size="12">UTILISATEUR</text>
	<text x="236" y="160.7" fill="#000000" font-family="Verdana" font-size="12">code utilisateur</text>
	<line x1="236" y1="163" x2="330" y2="163" stroke="#000000" stroke-width="1"/>
	<text x="236" y="177.7" fill="#000000" font-family="Verdana" font-size="12">rôle</text>
	<text x="236" y="194.7" fill="#000000" font-family="Verdana" font-size="12">prénom</text>
	<text x="236" y="211.8" fill="#000000" font-family="Verdana" font-size="12">nom</text>
	<text x="236" y="228.8" fill="#000000" font-family="Verdana" font-size="12">mdp</text>
	<text x="236" y="245.8" fill="#000000" font-family="Verdana" font-size="12">pseudo</text>
	<text x="236" y="262.8" fill="#000000" font-family="Verdana" font-size="12">email</text>
	<text x="236" y="279.8" fill="#000000" font-family="Verdana" font-size="12">description</text>
	<text x="236" y="296.8" fill="#000000" font-family="Verdana" font-size="12">tableau de résultat</text>
</g>

<!-- Entity COMMENTAIRE -->
<g id="entity-COMMENTAIRE">
	<g id="frame-COMMENTAIRE">
		<rect x="355" y="9" width="124" height="25" fill="#bababa" stroke="#bababa" stroke-width="0"/>
		<rect x="355" y="34.0" width="124" height="59" fill="#e0e0e0" stroke="#e0e0e0" stroke-width="0"/>
		<rect x="355" y="9" width="124" height="84" fill="none" stroke="#878787" stroke-width="2"/>
		<line x1="355" y1="34" x2="479" y2="34" stroke="#878787" stroke-width="1"/>
	</g>
	<text x="371" y="26.7" fill="#000000" font-family="Verdana" font-size="12">COMMENTAIRE</text>
	<text x="360" y="51.8" fill="#000000" font-family="Verdana" font-size="12">code commentaire</text>
	<line x1="360" y1="54" x2="473" y2="54" stroke="#000000" stroke-width="1"/>
	<text x="360" y="68.8" fill="#000000" font-family="Verdana" font-size="12">texte</text>
	<text x="360" y="85.8" fill="#000000" font-family="Verdana" font-size="12">date</text>
</g>

<!-- Entity CHALLENGE -->
<g id="entity-CHALLENGE">
	<g id="frame-CHALLENGE">
		<rect x="9" y="143" width="100" height="25" fill="#bababa" stroke="#bababa" stroke-width="0"/>
		<rect x="9" y="168.0" width="100" height="111" fill="#e0e0e0" stroke="#e0e0e0" stroke-width="0"/>
		<rect x="9" y="143" width="100" height="136" fill="none" stroke="#878787" stroke-width="2"/>
		<line x1="9" y1="168" x2="109" y2="168" stroke="#878787" stroke-width="1"/>
	</g>
	<text x="22" y="160.7" fill="#000000" font-family="Verdana" font-size="12">CHALLENGE</text>
	<text x="14" y="185.7" fill="#000000" font-family="Verdana" font-size="12">code challenge</text>
	<line x1="14" y1="188" x2="104" y2="188" stroke="#000000" stroke-width="1"/>
	<text x="14" y="202.7" fill="#000000" font-family="Verdana" font-size="12">titre</text>
	<text x="14" y="219.8" fill="#000000" font-family="Verdana" font-size="12">énoncé</text>
	<text x="14" y="236.8" fill="#000000" font-family="Verdana" font-size="12">code</text>
	<text x="14" y="253.8" fill="#000000" font-family="Verdana" font-size="12">solution</text>
</g>

<!-- Entity CATÉGORIE -->
<g id="entity-CATÉGORIE">
	<g id="frame-CATÉGORIE">
		<rect x="126" y="346" width="100" height="25" fill="#bababa" stroke="#bababa" stroke-width="0"/>
		<rect x="126" y="371.0" width="100" height="43" fill="#e0e0e0" stroke="#e0e0e0" stroke-width="0"/>
		<rect x="126" y="346" width="100" height="68" fill="none" stroke="#878787" stroke-width="2"/>
		<line x1="126" y1="371" x2="226" y2="371" stroke="#878787" stroke-width="1"/>
	</g>
	<text x="140" y="363.7" fill="#000000" font-family="Verdana" font-size="12">CATÉGORIE</text>
	<text x="131" y="388.8" fill="#000000" font-family="Verdana" font-size="12">code catégorie</text>
	<line x1="131" y1="391" x2="220" y2="391" stroke="#000000" stroke-width="1"/>
	<text x="131" y="405.8" fill="#000000" font-family="Verdana" font-size="12">nom</text>
</g>

<!-- Entity RELATION -->
<g id="entity-RELATION">
	<g id="frame-RELATION">
		<rect x="363" y="329" width="108" height="25" fill="#bababa" stroke="#bababa" stroke-width="0"/>
		<rect x="363" y="354.0" width="108" height="77" fill="#e0e0e0" stroke="#e0e0e0" stroke-width="0"/>
		<rect x="363" y="329" width="108" height="102" fill="none" stroke="#878787" stroke-width="2"/>
		<line x1="363" y1="354" x2="471" y2="354" stroke="#878787" stroke-width="1"/>
	</g>
	<text x="385" y="346.7" fill="#000000" font-family="Verdana" font-size="12">RELATION</text>
	<text x="368" y="371.7" fill="#000000" font-family="Verdana" font-size="12">code relation</text>
	<line x1="368" y1="374" x2="447" y2="374" stroke="#000000" stroke-width="1"/>
	<text x="368" y="388.8" fill="#000000" font-family="Verdana" font-size="12">utilisateur</text>
	<text x="368" y="405.8" fill="#000000" font-family="Verdana" font-size="12">autre utilisateur</text>
	<text x="368" y="422.8" fill="#000000" font-family="Verdana" font-size="12">type</text>
</g>

<!-- Entity POST -->
<g id="entity-POST">
	<g id="frame-POST">
		<rect x="514" y="152" width="78" height="25" fill="#bababa" stroke="#bababa" stroke-width="0"/>
		<rect x="514" y="177.0" width="78" height="93" fill="#e0e0e0" stroke="#e0e0e0" stroke-width="0"/>
		<rect x="514" y="152" width="78" height="118" fill="none" stroke="#878787" stroke-width="2"/>
		<line x1="514" y1="177" x2="592" y2="177" stroke="#878787" stroke-width="1"/>
	</g>
	<text x="536" y="169.7" fill="#000000" font-family="Verdana" font-size="12">POST</text>
	<text x="519" y="194.7" fill="#000000" font-family="Verdana" font-size="12">code poste</text>
	<line x1="519" y1="197" x2="585" y2="197" stroke="#000000" stroke-width="1"/>
	<text x="519" y="211.8" fill="#000000" font-family="Verdana" font-size="12">titre</text>
	<text x="519" y="228.8" fill="#000000" font-family="Verdana" font-size="12">description</text>
	<text x="519" y="245.8" fill="#000000" font-family="Verdana" font-size="12">image</text>
	<text x="519" y="262.8" fill="#000000" font-family="Verdana" font-size="12">date</text>
</g>
</svg>