<?xml version="1.0" standalone="no"?>
<!DOCTYPE svg PUBLIC "-//W3C//DTD SVG 1.1//EN"
"http://www.w3.org/Graphics/SVG/1.1/DTD/svg11.dtd">

<svg width="368" height="331" view_box="0 0 368 331"
xmlns="http://www.w3.org/2000/svg"
xmlns:link="http://www.w3.org/1999/xlink">\n\n<desc>Généré par Mocodo 2.3.7 le Fri, 15 Jul 2022 06:10:56</desc>

<rect id="frame" x="0" y="0" width="368" height="331" fill="#f7f7f7" stroke="none" stroke-width="0"/>

<!-- Association poster -->
<line x1="48" y1="263" x2="48" y2="94" stroke="#4393c3" stroke-width="2"/>
<text x="53.0" y="196" fill="#b2182b" font-family="Verdana" font-size="12">1,1</text>
<line x1="161" y1="94" x2="48" y2="94" stroke="#4393c3" stroke-width="2"/>
<text x="82" y="111.0" fill="#b2182b" font-family="Verdana" font-size="12">0,N</text>
<g id="association-poster">
	<path d="M 61 69 a 14 14 90 0 1 14 14 V 94 h -54 V 83 a 14 14 90 0 1 14 -14" fill="#92c5de" stroke="#92c5de" stroke-width="0"/>
	<path d="M 75 94.0 v 11 a 14 14 90 0 1 -14 14 H 35 a 14 14 90 0 1 -14 -14 V 94.0 H 54" fill="#d1e5f0" stroke="#d1e5f0" stroke-width="0"/>
	<rect x="21" y="69" width="54" height="50" fill="none" rx="14" stroke="#4393c3" stroke-width="2"/>
	<line x1="21" y1="94" x2="75" y2="94" stroke="#4393c3" stroke-width="1"/>
	<text x="28" y="86.7" fill="#000000" font-family="Verdana" font-size="12">poster</text>
</g>

<!-- Association commenter -->
<line x1="48" y1="263" x2="161" y2="263" stroke="#4393c3" stroke-width="2"/>
<text x="92" y="280.0" fill="#b2182b" font-family="Verdana" font-size="12">0,N</text>
<line x1="297" y1="263" x2="161" y2="263" stroke="#4393c3" stroke-width="2"/>
<text x="209" y="280.0" fill="#b2182b" font-family="Verdana" font-size="12">1,1</text>
<g id="association-commenter">
	<path d="M 189 238 a 14 14 90 0 1 14 14 V 263 h -84 V 252 a 14 14 90 0 1 14 -14" fill="#92c5de" stroke="#92c5de" stroke-width="0"/>
	<path d="M 203 263.0 v 11 a 14 14 90 0 1 -14 14 H 133 a 14 14 90 0 1 -14 -14 V 263.0 H 84" fill="#d1e5f0" stroke="#d1e5f0" stroke-width="0"/>
	<rect x="119" y="238" width="84" height="50" fill="none" rx="14" stroke="#4393c3" stroke-width="2"/>
	<line x1="119" y1="263" x2="203" y2="263" stroke="#4393c3" stroke-width="1"/>
	<text x="126" y="255.7" fill="#000000" font-family="Verdana" font-size="12">commenter</text>
</g>

<!-- Association rédiger -->
<line x1="161" y1="94" x2="297" y2="94" stroke="#4393c3" stroke-width="2"/>
<text x="218" y="111.0" fill="#b2182b" font-family="Verdana" font-size="12">0,N</text>
<line x1="297" y1="263" x2="297" y2="94" stroke="#4393c3" stroke-width="2"/>
<text x="302.0" y="213" fill="#b2182b" font-family="Verdana" font-size="12">1,1</text>
<g id="association-rédiger">
	<path d="M 312 69 a 14 14 90 0 1 14 14 V 94 h -58 V 83 a 14 14 90 0 1 14 -14" fill="#92c5de" stroke="#92c5de" stroke-width="0"/>
	<path d="M 326 94.0 v 11 a 14 14 90 0 1 -14 14 H 282 a 14 14 90 0 1 -14 -14 V 94.0 H 58" fill="#d1e5f0" stroke="#d1e5f0" stroke-width="0"/>
	<rect x="268" y="69" width="58" height="50" fill="none" rx="14" stroke="#4393c3" stroke-width="2"/>
	<line x1="268" y1="94" x2="326" y2="94" stroke="#4393c3" stroke-width="1"/>
	<text x="275" y="86.7" fill="#000000" font-family="Verdana" font-size="12">rédiger</text>
</g>

<!-- Entity COMMENTAIRE -->
<g id="entity-COMMENTAIRE">
	<g id="frame-COMMENTAIRE">
		<rect x="235" y="221" width="124" height="25" fill="#f4a582" stroke="#f4a582" stroke-width="0"/>
		<rect x="235" y="246.0" width="124" height="59" fill="#fddbc7" stroke="#fddbc7" stroke-width="0"/>
		<rect x="235" y="221" width="124" height="84" fill="none" stroke="#d6604d" stroke-width="2"/>
		<line x1="235" y1="246" x2="359" y2="246" stroke="#d6604d" stroke-width="1"/>
	</g>
	<text x="251" y="238.7" fill="#000000" font-family="Verdana" font-size="12">COMMENTAIRE</text>
	<text x="240" y="263.8" fill="#000000" font-family="Verdana" font-size="12">code commentaire</text>
	<line x1="240" y1="266" x2="353" y2="266" stroke="#000000" stroke-width="1"/>
	<text x="240" y="280.8" fill="#000000" font-family="Verdana" font-size="12">texte</text>
	<text x="240" y="297.8" fill="#000000" font-family="Verdana" font-size="12">date</text>
</g>

<!-- Entity UTILISATEUR -->
<g id="entity-UTILISATEUR">
	<g id="frame-UTILISATEUR">
		<rect x="109" y="9" width="104" height="25" fill="#f4a582" stroke="#f4a582" stroke-width="0"/>
		<rect x="109" y="34.0" width="104" height="145" fill="#fddbc7" stroke="#fddbc7" stroke-width="0"/>
		<rect x="109" y="9" width="104" height="170" fill="none" stroke="#d6604d" stroke-width="2"/>
		<line x1="109" y1="34" x2="213" y2="34" stroke="#d6604d" stroke-width="1"/>
	</g>
	<text x="119" y="26.7" fill="#000000" font-family="Verdana" font-size="12">UTILISATEUR</text>
	<text x="114" y="51.7" fill="#000000" font-family="Verdana" font-size="12">code utilisateur</text>
	<line x1="114" y1="54" x2="208" y2="54" stroke="#000000" stroke-width="1"/>
	<text x="114" y="68.7" fill="#000000" font-family="Verdana" font-size="12">rôle</text>
	<text x="114" y="85.7" fill="#000000" font-family="Verdana" font-size="12">prénom</text>
	<text x="114" y="102.8" fill="#000000" font-family="Verdana" font-size="12">nom</text>
	<text x="114" y="119.8" fill="#000000" font-family="Verdana" font-size="12">mdp</text>
	<text x="114" y="136.8" fill="#000000" font-family="Verdana" font-size="12">pseudo</text>
	<text x="114" y="153.8" fill="#000000" font-family="Verdana" font-size="12">email</text>
	<text x="114" y="170.8" fill="#000000" font-family="Verdana" font-size="12">description</text>
</g>

<!-- Entity POST -->
<g id="entity-POST">
	<g id="frame-POST">
		<rect x="9" y="204" width="78" height="25" fill="#f4a582" stroke="#f4a582" stroke-width="0"/>
		<rect x="9" y="229.0" width="78" height="93" fill="#fddbc7" stroke="#fddbc7" stroke-width="0"/>
		<rect x="9" y="204" width="78" height="118" fill="none" stroke="#d6604d" stroke-width="2"/>
		<line x1="9" y1="229" x2="87" y2="229" stroke="#d6604d" stroke-width="1"/>
	</g>
	<text x="31" y="221.7" fill="#000000" font-family="Verdana" font-size="12">POST</text>
	<text x="14" y="246.7" fill="#000000" font-family="Verdana" font-size="12">code poste</text>
	<line x1="14" y1="249" x2="80" y2="249" stroke="#000000" stroke-width="1"/>
	<text x="14" y="263.8" fill="#000000" font-family="Verdana" font-size="12">titre</text>
	<text x="14" y="280.8" fill="#000000" font-family="Verdana" font-size="12">description</text>
	<text x="14" y="297.8" fill="#000000" font-family="Verdana" font-size="12">image</text>
	<text x="14" y="314.8" fill="#000000" font-family="Verdana" font-size="12">date</text>
</g>
</svg>